<svg width="51" height="18" viewBox="0 0 51 18" fill="none" xmlns="http://www.w3.org/2000/svg">
<path d="M3.46875 5.37695V17H0.364258V5.37695H3.46875ZM0.170898 2.34766C0.170898 1.89648 0.328451 1.52409 0.643555 1.23047C0.958659 0.936849 1.38118 0.790039 1.91113 0.790039C2.43392 0.790039 2.85286 0.936849 3.16797 1.23047C3.49023 1.52409 3.65137 1.89648 3.65137 2.34766C3.65137 2.79883 3.49023 3.17122 3.16797 3.46484C2.85286 3.75846 2.43392 3.90527 1.91113 3.90527C1.38118 3.90527 0.958659 3.75846 0.643555 3.46484C0.328451 3.17122 0.170898 2.79883 0.170898 2.34766ZM18.6152 8.8252V15.0234C18.3717 15.3171 17.9958 15.6357 17.4873 15.9795C16.9788 16.3161 16.3236 16.6061 15.5215 16.8496C14.7194 17.0931 13.749 17.2148 12.6104 17.2148C11.6006 17.2148 10.6803 17.0501 9.84961 16.7207C9.01888 16.3841 8.30273 15.8936 7.70117 15.249C7.10677 14.6045 6.64844 13.8167 6.32617 12.8857C6.00391 11.9476 5.84277 10.877 5.84277 9.67383V8.69629C5.84277 7.49316 5.99674 6.42253 6.30469 5.48438C6.61979 4.54622 7.06738 3.75488 7.64746 3.11035C8.22754 2.46582 8.91862 1.97526 9.7207 1.63867C10.5228 1.30208 11.4144 1.13379 12.3955 1.13379C13.7562 1.13379 14.8734 1.35579 15.7471 1.7998C16.6208 2.23665 17.2868 2.84538 17.7451 3.62598C18.2106 4.39941 18.4971 5.28743 18.6045 6.29004H15.4785C15.3997 5.76009 15.2493 5.29818 15.0273 4.9043C14.8053 4.51042 14.4867 4.20247 14.0713 3.98047C13.6631 3.75846 13.1331 3.64746 12.4814 3.64746C11.9443 3.64746 11.4645 3.75846 11.042 3.98047C10.6266 4.19531 10.2757 4.514 9.98926 4.93652C9.7028 5.35905 9.48438 5.88184 9.33398 6.50488C9.18359 7.12793 9.1084 7.85124 9.1084 8.6748V9.67383C9.1084 10.4902 9.18717 11.2135 9.34473 11.8438C9.50228 12.4668 9.73503 12.9932 10.043 13.4229C10.3581 13.8454 10.7448 14.1641 11.2031 14.3789C11.6615 14.5938 12.195 14.7012 12.8037 14.7012C13.3122 14.7012 13.7347 14.6582 14.0713 14.5723C14.415 14.4863 14.6908 14.3825 14.8984 14.2607C15.1133 14.1318 15.278 14.0101 15.3926 13.8955V11.124H12.4492V8.8252H18.6152ZM31.71 14.4863V17H23.3848V14.4863H31.71ZM24.4375 1.35938V17H21.2148V1.35938H24.4375ZM30.625 7.72949V10.1787H23.3848V7.72949H30.625ZM31.6992 1.35938V3.88379H23.3848V1.35938H31.6992ZM35.0615 1.35938H37.79L41.8076 12.8428L45.8252 1.35938H48.5537L42.9033 17H40.7119L35.0615 1.35938ZM33.5898 1.35938H36.3076L36.8018 12.5527V17H33.5898V1.35938ZM47.3076 1.35938H50.0361V17H46.8135V12.5527L47.3076 1.35938Z" fill="white"/>
</svg>
